# xmcd
#
# Track frame offsets:
#	150
#	17192
#	39209
#	58963
#	81793
#	104335
#	127516
#	140926
#	162789
#	181738
#	208483
#	237545
#	254619
#	279111
#	296541
#	314034
#
# Disc length: 4436 seconds
#
# Revision: 1
# Processed by: cddbd v1.5.2PL0 Copyright (c) Steve Scherf et al.
# Submitted via: audiograbber 1.83.01
#
DISCID=ed115210
DTITLE=Jens Hausmann - Precious Moments
DYEAR=2015
DGENRE=Acoustic
TTITLE0=Dizzy Rabbit
TTITLE1=Dolce far niente
TTITLE2=Light as a feather
TTITLE3=Angel´s share
TTITLE4=Heureka
TTITLE5=Blue Chestnut
TTITLE6=Jerry´s Blues
TTITLE7=Sigue tu corazon
TTITLE8=Miles to go
TTITLE9=Right now
TTITLE10=For you
TTITLE11=Rubber biscuit
TTITLE12=Glazed donut
TTITLE13=Tango for Django
TTITLE14=Precious Moments
TTITLE15=Two notes -  One love
EXTD=
EXTT0=
EXTT1=
EXTT2=
EXTT3=
EXTT4=
EXTT5=
EXTT6=
EXTT7=
EXTT8=
EXTT9=
EXTT10=
EXTT11=
EXTT12=
EXTT13=
EXTT14=
EXTT15=
PLAYORDER=
